HIERARCHY
ROOT hip
{
	OFFSET 0.000000 0.000000 0.000000 
	CHANNELS 6 Xposition Yposition Zposition Xrotation Zrotation Yrotation
	JOINT abdomen
	{
		OFFSET 0.000000 3.402643 0.000000 
		CHANNELS 3 Xrotation Zrotation Yrotation
		JOINT chest
		{
			OFFSET 0.000000 8.438565 -0.680529 
			CHANNELS 3 Xrotation Zrotation Yrotation
			JOINT neck
			{
				OFFSET 0.000000 10.207942 -0.272212 
				CHANNELS 3 Xrotation Zrotation Yrotation
				JOINT head
				{
					OFFSET 0.000000 3.130431 0.000000 
					CHANNELS 3 Xrotation Zrotation Yrotation
					End Site
					{
						OFFSET 0.000000 3.130435 0.000000 
					}
				}
			}
			JOINT lCollar
			{
				OFFSET 3.470700 6.669187 -0.816635 
				CHANNELS 3 Yrotation Zrotation Xrotation
				JOINT lShldr
				{
					OFFSET 3.198488 0.000000 0.000000 
					CHANNELS 3 Zrotation Yrotation Xrotation
					JOINT lForeArm
					{
						OFFSET 10.139888 0.000000 0.000000 
						CHANNELS 3 Yrotation Zrotation Xrotation
						JOINT lHand
						{
							OFFSET 8.370511 0.000000 0.000000 
							CHANNELS 3 Zrotation Yrotation Xrotation
							End Site
							{
								OFFSET 4.083176 0.000000 0.000000 
							}
						}
					}
				}
			}
			JOINT rCollar
			{
				OFFSET -3.470700 6.669187 -0.816635 
				CHANNELS 3 Yrotation Zrotation Xrotation
				JOINT rShldr
				{
					OFFSET -3.198488 0.000000 0.000000 
					CHANNELS 3 Zrotation Yrotation Xrotation
					JOINT rForeArm
					{
						OFFSET -10.139888 0.000000 0.000000 
						CHANNELS 3 Yrotation Zrotation Xrotation
						JOINT rHand
						{
							OFFSET -8.370511 0.000000 0.000000 
							CHANNELS 3 Zrotation Yrotation Xrotation
							End Site
							{
								OFFSET -4.083176 0.000000 0.000000 
							}
						}
					}
				}
			}
		}
	}
	JOINT lThigh
	{
		OFFSET 5.308129 -1.633274 1.361059 
		CHANNELS 3 Xrotation Zrotation Yrotation
		JOINT lShin
		{
			OFFSET -2.041588 -20.007561 0.000000 
			CHANNELS 3 Xrotation Zrotation Yrotation
			JOINT lFoot
			{
				OFFSET 0.000000 -19.190928 -1.224953 
				CHANNELS 3 Xrotation Yrotation Zrotation
				End Site
				{
					OFFSET 0.000000 -2.449906 4.627600 
				}
			}
		}
	}
	JOINT rThigh
	{
		OFFSET -5.308129 -1.633274 1.361059 
		CHANNELS 3 Xrotation Zrotation Yrotation
		JOINT rShin
		{
			OFFSET 2.041588 -20.007561 0.000000 
			CHANNELS 3 Xrotation Zrotation Yrotation
			JOINT rFoot
			{
				OFFSET 0.000000 -19.190928 -1.224953 
				CHANNELS 3 Xrotation Yrotation Zrotation
				End Site
				{
					OFFSET 0.000000 -2.449906 4.627600 
				}
			}
		}
	}
}
MOTION
Frames: 6
Frame Time: 0.033333
-2.180732 39.165932 -23.688028 -20.699455 26.696938 56.442245 53.897373 4.360544 -0.072835 -20.839844 0.000000 0.000000 8.889088 -1.462252 19.869492 8.584577 -3.811294 0.287245 -4.754609 -0.109183 -0.002653 -85.144310 2.721029 8.033721 -26.326460 -11.510403 29.903801 2.258126 6.008451 9.634286 4.754609 0.109183 -0.002672 102.703239 -30.685244 -29.895332 29.799955 -3.384531 21.687815 10.682626 -4.823773 39.536488 32.509243 -1.015836 -18.465334 47.221420 7.612045 14.326909 -28.732437 46.306316 -11.429937 -10.865649 -12.690114 -6.545867 46.802986 4.735986 5.877437 6.914566 6.950655 1.780299 
-1.395469 38.004169 -22.642405 -21.671942 27.173590 55.847691 54.045647 4.764036 1.109771 -20.839844 0.000000 0.000000 9.304630 -2.122502 19.825594 8.584577 -3.811294 0.287245 -4.754609 -0.109183 -0.002653 -84.125343 3.353787 8.524472 -28.936480 -13.741171 30.222429 2.418161 5.934609 8.866642 4.754609 0.109183 -0.002672 104.595009 -25.425571 -26.925232 26.319418 -3.718361 6.613938 5.145268 -10.399103 20.503056 33.896744 0.485891 -16.113522 50.384270 7.224396 14.514564 -33.621441 44.927700 -10.687689 -8.827847 -10.360856 -4.344079 48.062080 3.310503 6.127753 -0.981695 5.411463 2.986455 
-0.644052 37.027786 -21.685282 -21.876633 27.515196 55.663853 54.573311 4.608983 1.571769 -20.839844 0.000000 0.000000 8.466756 -2.719836 20.474819 8.584577 -3.811294 0.287245 -4.754609 -0.109183 -0.002653 -83.371468 3.954700 8.222879 -30.421297 -14.558606 29.204386 2.112365 5.509203 7.516034 4.754609 0.109183 -0.002672 104.921280 -22.335546 -24.917109 29.480486 -4.252119 -3.786217 4.039006 -13.111119 6.002652 34.719501 2.049137 -12.813898 52.772137 7.057907 14.531816 -37.492607 42.644318 -9.973145 -9.400155 -9.145954 -2.753092 53.315296 1.960986 6.048779 -9.145770 3.278538 4.513628 
0.084999 36.717430 -20.943216 -21.296183 27.797352 56.340946 55.331161 4.428080 1.447307 -20.839844 0.000000 0.000000 7.312023 -3.422535 21.447456 8.584577 -3.811294 0.287245 -4.754609 -0.109183 -0.002653 -83.518959 4.625359 6.730447 -31.052242 -13.834742 26.153463 1.347366 5.269578 5.403792 4.754609 0.109183 -0.002672 103.388634 -20.966824 -23.324259 36.015457 -4.457399 -6.210399 4.155405 -12.589876 0.561097 35.724106 2.361232 -11.893811 52.915558 7.544587 14.586248 -37.502132 42.110302 -10.129539 -9.536504 -9.711795 -2.986055 56.428398 1.689654 6.054319 -12.251452 2.806992 5.308702 
0.745796 37.230869 -20.383951 -19.393024 27.985409 58.817608 55.338638 4.229298 1.149958 -20.839844 0.000000 0.000000 7.096351 -4.143495 21.494366 8.584577 -3.811294 0.287245 -4.754609 -0.109183 -0.002653 -84.065552 5.696050 4.981607 -32.076283 -13.081357 23.110512 1.176402 5.652273 3.709983 4.754609 0.109183 -0.002672 100.959877 -21.493341 -22.662853 45.280140 -4.096112 -3.166639 4.854182 -9.859857 1.881982 35.856514 2.196358 -13.053817 51.296024 8.432935 13.826753 -31.573130 42.632637 -12.750577 -8.208757 -11.643384 -4.515051 55.999260 2.246220 5.969613 -13.541876 3.208892 4.373633 
1.213432 38.340034 -19.982981 -15.911129 27.883041 63.491627 54.485687 3.479978 1.313869 -20.839844 0.000000 0.000000 7.466112 -4.375182 19.303553 8.584577 -3.811294 0.287245 -4.754609 -0.109183 -0.002653 -83.662773 6.971870 4.151556 -34.429905 -13.866453 22.375105 2.181870 5.799082 3.612830 4.754609 0.109183 -0.002672 98.714821 -24.419621 -23.667046 58.393444 -3.226730 1.221948 7.124746 -6.548151 5.191169 32.347313 4.070174 -11.627644 50.762375 8.335417 10.756002 -20.635946 38.559105 -16.461790 -5.935552 -13.762750 -6.136672 52.299744 2.685431 5.177835 -13.265524 2.543160 4.868036 
